<svg width="184" height="149" viewBox="0 0 184 149" fill="none" xmlns="http://www.w3.org/2000/svg">
<circle cx="30" cy="60.2529" r="29" stroke="#F53838" stroke-width="2"/>
<path d="M38.75 59.0028H23.925L28.4625 53.5528C28.6747 53.2975 28.7768 52.9684 28.7463 52.6379C28.7158 52.3073 28.5553 52.0025 28.3 51.7903C28.0447 51.5781 27.7156 51.476 27.3851 51.5065C27.0546 51.537 26.7497 51.6975 26.5375 51.9528L20.2875 59.4528C20.2455 59.5124 20.2078 59.5751 20.175 59.6403C20.175 59.7028 20.175 59.7403 20.0875 59.8028C20.0308 59.9461 20.0012 60.0987 20 60.2528C20.0012 60.4069 20.0308 60.5595 20.0875 60.7028C20.0875 60.7653 20.0875 60.8028 20.175 60.8653C20.2078 60.9305 20.2455 60.9931 20.2875 61.0528L26.5375 68.5528C26.655 68.6939 26.8022 68.8074 26.9686 68.8851C27.1349 68.9629 27.3164 69.0031 27.5 69.0028C27.7921 69.0034 28.0751 68.9016 28.3 68.7153C28.4266 68.6103 28.5312 68.4815 28.6079 68.336C28.6846 68.1906 28.7318 68.0315 28.7469 67.8678C28.762 67.704 28.7447 67.5389 28.6959 67.3819C28.6471 67.2249 28.5678 67.0791 28.4625 66.9528L23.925 61.5028H38.75C39.0815 61.5028 39.3995 61.3711 39.6339 61.1367C39.8683 60.9022 40 60.5843 40 60.2528C40 59.9213 39.8683 59.6033 39.6339 59.3689C39.3995 59.1345 39.0815 59.0028 38.75 59.0028Z" fill="#F53838"/>
<g filter="url(#filter0_d_769_4)">
<circle cx="110" cy="60.2529" r="30" fill="#F53838"/>
<circle cx="110" cy="60.2529" r="29" stroke="#F53838" stroke-width="2"/>
</g>
<path d="M101.25 59.0028H116.075L111.537 53.5528C111.325 53.2975 111.223 52.9684 111.254 52.6379C111.284 52.3073 111.445 52.0025 111.7 51.7903C111.955 51.5781 112.284 51.476 112.615 51.5065C112.945 51.537 113.25 51.6975 113.463 51.9528L119.712 59.4528C119.755 59.5124 119.792 59.5751 119.825 59.6403C119.825 59.7028 119.825 59.7403 119.912 59.8028C119.969 59.9461 119.999 60.0987 120 60.2528C119.999 60.4069 119.969 60.5595 119.912 60.7028C119.912 60.7653 119.913 60.8028 119.825 60.8653C119.792 60.9305 119.755 60.9931 119.712 61.0528L113.463 68.5528C113.345 68.6939 113.198 68.8074 113.031 68.8851C112.865 68.9629 112.684 69.0031 112.5 69.0028C112.208 69.0034 111.925 68.9016 111.7 68.7153C111.573 68.6103 111.469 68.4815 111.392 68.336C111.315 68.1906 111.268 68.0315 111.253 67.8678C111.238 67.704 111.255 67.5389 111.304 67.3819C111.353 67.2249 111.432 67.0791 111.537 66.9528L116.075 61.5028H101.25C100.918 61.5028 100.601 61.3711 100.366 61.1367C100.132 60.9022 100 60.5843 100 60.2528C100 59.9213 100.132 59.6033 100.366 59.3689C100.601 59.1345 100.918 59.0028 101.25 59.0028Z" fill="white"/>
<defs>
<filter id="filter0_d_769_4" x="36" y="0.25293" width="148" height="148" filterUnits="userSpaceOnUse" color-interpolation-filters="sRGB">
<feFlood flood-opacity="0" result="BackgroundImageFix"/>
<feColorMatrix in="SourceAlpha" type="matrix" values="0 0 0 0 0 0 0 0 0 0 0 0 0 0 0 0 0 0 127 0" result="hardAlpha"/>
<feOffset dy="14"/>
<feGaussianBlur stdDeviation="22"/>
<feColorMatrix type="matrix" values="0 0 0 0 0.0561111 0 0 0 0 0.0777333 0 0 0 0 0.133333 0 0 0 0.08 0"/>
<feBlend mode="normal" in2="BackgroundImageFix" result="effect1_dropShadow_769_4"/>
<feBlend mode="normal" in="SourceGraphic" in2="effect1_dropShadow_769_4" result="shape"/>
</filter>
</defs>
</svg>
